<svg xmlns="http://www.w3.org/2000/svg" width="800" height="749" ><ellipse cx="428.295" cy="670.89" rx="358" ry="40" fill="#3f3d56"/><path d="M605.842 626.63l6.174 19.023s29.736 30.721 18.981 39.048-34.884-35.568-34.884-35.568l-4.447-21.476z" fill="#ffb8b8"/><g fill="#6c63ff"><path d="M548.795 479.39l9-3s14 4 16 18 17 85 17 85 6 3 2 8 20 50 20 50l-19 9s-38-40-38-44 1-8 1-12-1-4 0-7c.668-2.614 1.003-5.302 1-8l-7-16z"/><ellipse cx="90.418" cy="363.498" rx="90.418" ry="184.489"/></g><g fill="#3f3d56"><path d="M89.588 365.411c4.51-80.307 13.598-134.551 13.689-135.09l-1.972-.334c-.091.539-9.195 54.871-13.712 135.281-4.169 74.214-5.175 186.467 13.712 299.786l1.973-.328c-18.855-113.127-17.851-225.21-13.689-299.315z"/><path d="M89.479 369.84l81.752-43.756.944 1.763-81.752 43.756zM3.176 349.778l.943-1.764 81.764 43.734-.943 1.764z"/></g><ellipse cx="304.565" cy="252.458" rx="123.73" ry="252.458" fill="#e6e6e6"/><path d="M303.062 255.045c6.173-109.911 18.611-184.152 18.736-184.889l-1.972-.334c-.125.738-12.579 75.065-18.759 185.08-5.705 101.538-7.081 255.118 18.759 410.153l1.973-.328c-25.807-154.844-24.433-308.253-18.736-409.682zm.392 6.417l111.871-59.877.944 1.763-111.871 59.877zm-118.099-28.104l.943-1.764 111.887 59.847-.943 1.764z" fill="#3f3d56"/><ellipse cx="201.491" cy="508.968" rx="46.229" ry="94.325" fill="#e6e6e6"/><path d="M201.451 513.032l.274.512 41.798-22.372-.943-1.764-41.041 21.967c2.271-41.801 6.916-69.863 7.01-70.415l-1.972-.334c-.102.603-5.621 33.927-7.58 82.145l-41.393-22.156-.943 1.764 41.798 22.372.499-.933c-1.567 39.797-.689 89.56 7.62 139.41l1.973-.328c-9.059-54.352-9.258-108.603-7.097-149.868z" fill="#3f3d56"/><g fill="#2f2e41"><path d="M561.031 384.464c-16.074-27.395-47.876-28.672-47.876-28.672s-30.989-3.997-50.868 37.726c-18.529 38.89-44.101 76.439-4.117 85.543l7.222-22.674 4.473 24.362a155.11 155.11 0 0 0 17.108.295c42.82-1.394 83.599.408 82.286-15.091-1.745-20.603 7.238-55.129-8.229-81.489zM448.989 603.899a61.24 61.24 0 0 1-1.949 8.463c-.956 2.712-2.432 5.22-3.307 7.96-2.787 8.734 1.077 18.472 7.247 25.213a40.72 40.72 0 0 0 19.887 11.911c5.566 1.412 11.354 1.615 17.091 1.812 15.885.543 32.178 1.029 47.229-4.12a81.72 81.72 0 0 0 13.722-6.288 10.29 10.29 0 0 0 3.56-2.828c1.148-1.649 1.295-3.786 1.285-5.801-.034-6.792-1.399-13.55-1.075-20.334.18-3.758.877-7.513.534-11.259a20.71 20.71 0 0 0-15.738-17.892c-4.27-.925-8.698-.421-13.046.001a329.79 329.79 0 0 1-33.951 1.531c-11.582-.075-23.093-1.858-34.617-2.044-3.408-.055-3.339 1.005-4.424 4.332-1 3.063-1.817 6.182-2.448 9.342z"/><path d="M403.699 598.379a33.99 33.99 0 0 0-9.533-1.022 24.06 24.06 0 0 0-17.379 9.114 24.49 24.49 0 0 0-4.711 19.177c.777 3.627 2.048 7.13 3.777 10.412 2.528 5.175 5.56 10.338 10.241 13.655 2.817 1.822 5.854 3.28 9.038 4.339l24.65 9.367 10.915 4.034a211.9 211.9 0 0 0 57.013 11.432c5.919.356 11.928.454 17.702-.905a5.75 5.75 0 0 0 3.625-1.976 6.3 6.3 0 0 0 .81-2.699l1.517-10.711c.34-1.492.295-3.045-.129-4.515-.695-1.8-2.437-2.932-4.097-3.895-16.206-9.388-35.128-14.568-48.769-27.453-3.211-3.033-5.899-7.842-9.8-9.902-4.424-2.337-9.635-3.67-14.208-5.823-9.998-4.707-19.827-10.116-30.663-12.629z"/></g><path d="M428.309 612.818c8.713 2.754 45.499 21.832 51.804 28.493-.845.307-29.52-15.902-30.381-16.162-7.821-2.368-15.686-4.751-23.114-8.216-1.494-.697-9.707-3.973-9.335-5.875.42-2.146 9.479 1.271 11.026 1.76z" opacity=".1"/><g fill="#ffb8b8"><path d="M537.007 684.441c.495.036.986-.109 1.381-.41.351-.456.507-1.033.432-1.603l-.041-14.592c-4.16-1.999-8.813-2.64-13.381-3.256l-21.311-2.873c.49.066-3.332 9.258-2.746 10.486 1.033 2.163 8.926 4.08 11.153 5.101 7.744 3.55 15.791 7.453 24.512 7.147z"/><path d="M470.143 667.785c-4.024.646-8.515 1.218-11.121 4.377-3.305 4.006-1.898 9.979-.321 14.942.234 1.003.704 1.935 1.371 2.719 1.076 1.071 2.724 1.227 4.233 1.324 3.67.234 7.575.418 10.781-1.398 1.453-.969 2.851-2.017 4.188-3.14 2.362-1.586 4.961-2.784 7.7-3.551a77.28 77.28 0 0 1 15.456-3.213c2.068-.095 4.115-.459 6.089-1.083 2.005-.656 3.591-2.208 4.288-4.199.743-2.652-.785-5.355-2.251-7.681-1.826-2.897-3.759-5.947-6.481-8.08-3.971-3.111-5.935-.723-9.935 1.268a83.78 83.78 0 0 1-23.996 7.714z"/></g><g fill="#2f2e41"><path d="M459.628 671.441l-25.549-7.617a33.56 33.56 0 0 0-9.508-1.858c-3.24.002-6.63 1.074-8.732 3.562-1.981 2.345-2.548 5.551-3.042 8.591l-1.057 6.504c-.705 3.28-.904 6.648-.592 9.988.483 3.314 2.16 6.625 5.076 8.229 3.536 1.946 7.869.995 11.815.182a127.59 127.59 0 0 1 24.212-2.619c3.058-.037 6.266.002 8.968-1.443 3.212-1.717 5.134-5.348 5.464-9 .503-5.556-1.333-12.814-7.055-14.52zm87.422-6.638c3.312-.586 6.235-2.484 9.409-3.605 4.467-1.577 9.308-1.577 14.041-1.56 1.737.006 3.588.046 5.034 1.017 2.085 1.4 2.619 4.202 2.974 6.702l2.139 15.088c.402 2.838.802 5.752.175 8.548s-2.517 5.492-5.268 6.213c-3.341.876-6.616-1.277-9.771-2.691-7.884-3.534-17.049-2.631-25.27-5.273-1.526-.49-3.16-1.24-3.782-2.728a6.25 6.25 0 0 1-.294-2.607c.141-4.85-.873-11.472.574-16.107 1.302-4.169 6.342-2.998 10.04-2.998z"/><path d="M601.118 592.306a44 44 0 0 1 15.629-1.077c4.178.464 8.483 1.637 11.534 4.554 3.713 3.55 4.906 9.041 5.006 14.201.168 10.263-3.209 20.271-9.56 28.335a25.59 25.59 0 0 1-5.466 5.307c-2.236 1.411-4.621 2.57-7.112 3.457l-55.203 21.962c-14.523 5.778-29.097 11.572-44.245 15.381-.838.406-1.805.455-2.68.135s-1.582-.981-1.96-1.832a115.67 115.67 0 0 1-12.099-22.324 2.02 2.02 0 0 1-.156-1.672c.202-.304.484-.546.815-.7l39.046-22.629a39.47 39.47 0 0 0 7.947-5.523c1.69-1.652 3.071-3.593 4.08-5.73.809-1.705.885-5.729 1.919-6.989 1.012-1.234 4.475-1.332 6.074-1.818a54.82 54.82 0 0 0 6.612-2.521c8.734-3.941 16.512-9.668 24.885-14.282 4.692-2.707 9.711-4.802 14.934-6.236z"/></g><path d="M578.983 609.205c-6.708 5.082-15.394 9.753-22.043 14.969-2.269 1.78-40.095 23.23-40.63 26.079 6.203 1.054 45.715-26.827 51.368-29.609s10.664-6.705 15.63-10.6c1.265-.992 6.629-3.976 2.996-5.085-2.047-.625-5.81 3.229-7.321 4.245z" opacity=".1"/><g fill="#ffb8b8"><circle cx="511.795" cy="415.39" r="38"/><path d="M527.795 447.39s-6 15 5 21-34 54-34 54l-20-58s17-6 14-22z"/></g><path d="M502.795 488.39l24.218-26.736 32.782 16.736-5 118-8 9s-34 30-86 5c0 0-18-15-17-38s-2-26-2-26l-1-81 49.371-9.688z" fill="#6c63ff"/><path d="M391.748 615.63l-6.174 19.023s-29.736 30.721-18.981 39.048 34.884-35.568 34.884-35.568l4.447-21.476z" fill="#ffb8b8"/><path d="M448.795 468.39l-9-3s-14 4-16 18-17 85-17 85-6 3-2 8-20 50-20 50l19 9s38-40 38-44-1-8-1-12 1-4 0-7c-.668-2.614-1.003-5.302-1-8l7-16z" fill="#6c63ff"/><path fill="#2f2e41" d="M553.925 381.823l-31.419-16.599-43.387 6.79-8.977 39.991 22.346-.867 6.242-14.692v14.449l10.311-.4 5.985-23.39 3.74 24.9 36.655-.755-1.496-29.427z"/><path d="M331.205 639.08v57.68h-176.18c.002-31.855 25.825-57.678 57.68-57.68 16.52-5.15 35.62-6.79 56.34-6.25 19.55.5 40.54 2.95 62.16 6.25z" fill="#ff6584"/><path d="M306.037 684.178h82.847a5.244 5.244 0 0 1 5.243 5.244h0a5.244 5.244 0 0 1-5.243 5.244h-82.847a0 0 0 0 1 0 0v-10.487a0 0 0 0 1 0 0zm14.349-94.46l22.206-26.918a5.83 5.83 0 0 1 10.865.931l8.757 30.918z" fill="#3f3d56"/><path d="M293.453 603.428l8.39-33.872a5.83 5.83 0 0 1 10.2-3.857l21.261 24.096zm-138.429 93.334h16.779a0 0 0 0 1 0 0v35.656a16.779 16.779 0 0 1-16.779 16.779h0a0 0 0 0 1 0 0v-52.435a0 0 0 0 1 0 0zm147.867-10.487h82.847a5.244 5.244 0 0 1 5.243 5.244h0a5.244 5.244 0 0 1-5.244 5.244H302.89a0 0 0 0 1 0 0v-10.487a0 0 0 0 1 0 0z" fill="#ff6584"/><path d="M331.205 639.08v57.36c-17.244 1.832-34.378-4.336-46.498-16.738s-17.891-29.674-15.662-46.872c19.55.5 40.54 2.95 62.16 6.25z" opacity=".2"/><circle cx="331.206" cy="640.132" r="56.63" fill="#ff6584"/><g fill="#3f3d56"><ellipse cx="385.738" cy="644.327" rx="6.292" ry="14.682"/><ellipse cx="370.532" cy="629.121" rx="1.573" ry="3.67"/><ellipse cx="382.068" cy="621.78" rx="1.573" ry="3.67"/><path d="M326.455 582.872s-3.147-5.475-3.147-8.815m4.531 5.274s1.715-6.078 4.103-8.413"/></g></svg>
