<svg width="890" height="460" viewBox="0 0 890 460" fill="none" xmlns="http://www.w3.org/2000/svg">
<g clip-path="url(#clip0_1_3)">
<path d="M444.538 410.604C690.05 410.604 889.076 405.037 889.076 398.169C889.076 391.301 690.05 385.734 444.538 385.734C199.026 385.734 0 391.301 0 398.169C0 405.037 199.026 410.604 444.538 410.604Z" fill="#E6E6E6"/>
<path d="M681.445 263.431L679.753 263.446C679.184 263.446 678.623 263.438 678.061 263.431C648.304 262.754 626.735 244.162 632.225 224.654L645.612 177.065L648.995 165.024L708.971 166.047L712.616 177.827L726.964 224.193C733.038 243.808 711.47 262.755 681.444 263.431H681.445Z" fill="#3F3D56"/>
<path opacity="0.2" d="M712.617 177.827C691.794 189.73 666.16 189.439 645.613 177.066L648.996 165.025L708.972 166.048L712.617 177.827Z" fill="black"/>
<path d="M710.086 226.233C712.677 216.577 721.192 202.648 745.073 185.853C786.721 156.559 761.876 134.594 760.8 133.673C758.542 131.743 758.875 129.575 761.575 128.834C764.749 128.2 768.042 128.966 770.609 130.937C771.957 132.052 803.068 158.62 756.072 191.671C713.777 221.421 722.77 240.84 722.873 241.026C724.006 243.103 722.189 244.765 718.81 244.742C715.431 244.719 711.771 243.019 710.634 240.944C710.395 240.505 707.673 235.22 710.087 226.231L710.086 226.233ZM652.072 270.367C651.163 270.367 650.263 270.188 649.424 269.84C648.584 269.492 647.821 268.983 647.179 268.34C646.536 267.698 646.027 266.935 645.679 266.095C645.331 265.256 645.152 264.356 645.152 263.447V233.459C645.141 232.543 645.312 231.634 645.655 230.785C645.998 229.936 646.506 229.163 647.149 228.511C647.793 227.86 648.56 227.343 649.405 226.99C650.25 226.637 651.157 226.455 652.072 226.455C652.988 226.455 653.895 226.637 654.74 226.99C655.585 227.343 656.352 227.86 656.996 228.511C657.639 229.163 658.147 229.936 658.49 230.785C658.833 231.634 659.004 232.543 658.993 233.459V263.447C658.993 264.356 658.814 265.256 658.466 266.095C658.118 266.935 657.609 267.698 656.966 268.34C656.324 268.983 655.561 269.492 654.721 269.84C653.882 270.188 652.981 270.367 652.072 270.367ZM658.14 199.174C657.76 200 657.221 200.742 656.555 201.36C655.888 201.977 655.106 202.457 654.253 202.772C653.401 203.087 652.495 203.231 651.587 203.196C650.679 203.161 649.787 202.948 648.961 202.568L621.718 190.034C620.051 189.267 618.756 187.869 618.12 186.147C617.483 184.426 617.556 182.522 618.323 180.855C619.091 179.187 620.489 177.893 622.21 177.256C623.932 176.62 625.836 176.693 627.503 177.46L654.746 189.994C655.572 190.374 656.314 190.913 656.932 191.579C657.549 192.246 658.029 193.028 658.344 193.881C658.659 194.733 658.803 195.639 658.768 196.547C658.733 197.455 658.52 198.348 658.14 199.174ZM701.367 199.174C701.747 200 702.286 200.742 702.952 201.36C703.619 201.977 704.401 202.457 705.254 202.772C706.106 203.087 707.012 203.231 707.92 203.196C708.828 203.161 709.72 202.948 710.546 202.568L737.789 190.034C738.615 189.654 739.357 189.115 739.975 188.449C740.592 187.782 741.072 187 741.387 186.147C741.703 185.295 741.847 184.389 741.812 183.481C741.777 182.572 741.563 181.68 741.183 180.855C740.804 180.029 740.265 179.286 739.598 178.669C738.931 178.051 738.149 177.571 737.297 177.256C736.444 176.941 735.538 176.797 734.63 176.832C733.722 176.867 732.83 177.08 732.004 177.46L704.761 189.994C703.935 190.374 703.193 190.913 702.575 191.579C701.958 192.246 701.478 193.028 701.163 193.881C700.848 194.733 700.704 195.639 700.739 196.547C700.774 197.455 700.987 198.348 701.367 199.174Z" fill="#3F3D56"/>
<path d="M707.435 270.367C708.344 270.367 709.244 270.188 710.083 269.84C710.923 269.492 711.686 268.983 712.328 268.34C712.971 267.698 713.48 266.935 713.828 266.095C714.176 265.256 714.355 264.356 714.355 263.447V233.459C714.366 232.543 714.195 231.634 713.852 230.785C713.509 229.936 713.001 229.163 712.358 228.511C711.714 227.86 710.947 227.343 710.102 226.99C709.257 226.637 708.35 226.455 707.435 226.455C706.519 226.455 705.612 226.637 704.767 226.99C703.922 227.343 703.155 227.86 702.511 228.511C701.868 229.163 701.36 229.936 701.017 230.785C700.674 231.634 700.503 232.543 700.514 233.459V263.447C700.514 265.282 701.243 267.042 702.541 268.34C703.839 269.638 705.6 270.367 707.435 270.367ZM736.356 76.225C737.566 74.701 738.066 72.733 737.73 70.817L733.964 48.66L730.198 26.503C729.784 24.068 728.103 22.039 725.787 21.18C724.649 20.7578 723.42 20.6426 722.224 20.846C721.028 21.0495 719.906 21.5644 718.972 22.339L701.667 36.679L691.241 45.319C684.288 44.0825 677.181 43.9755 670.194 45.002L660.151 36.68L642.846 22.34C640.944 20.764 638.346 20.323 636.031 21.182C633.716 22.041 632.034 24.07 631.62 26.505L627.854 48.662L624.088 70.819C623.887 71.984 623.991 73.18 624.389 74.293C606.52 101.686 611.364 138.027 635.784 159.783C660.204 181.539 696.861 182.173 722.017 161.273C747.173 140.373 753.27 104.221 736.358 76.228L736.356 76.225Z" fill="#3F3D56"/>
<path d="M641.109 31.418C640.699 31.419 640.292 31.492 639.907 31.636C639.342 31.842 638.842 32.1946 638.458 32.6576C638.074 33.1207 637.821 33.6775 637.723 34.271L633.156 61.141C633.055 61.7335 633.111 62.3422 633.32 62.9059C633.529 63.4696 633.882 63.9683 634.345 64.3518C634.808 64.7353 635.364 64.99 635.956 65.0903C636.549 65.1906 637.158 65.1329 637.721 64.923L663.274 55.444C663.838 55.2356 664.337 54.8823 664.72 54.4197C665.104 53.9571 665.359 53.4016 665.46 52.809C665.561 52.2165 665.503 51.6079 665.294 51.0445C665.084 50.4811 664.73 49.9829 664.267 49.6L643.282 32.209C642.673 31.6986 641.904 31.4183 641.11 31.417L641.109 31.418ZM720.704 31.418C719.91 31.4193 719.141 31.6996 718.532 32.21L697.546 49.6C697.083 49.9829 696.729 50.4811 696.519 51.0445C696.31 51.6079 696.252 52.2165 696.353 52.809C696.454 53.4016 696.709 53.9571 697.093 54.4197C697.476 54.8823 697.975 55.2356 698.539 55.444L724.092 64.923C725.238 65.348 726.525 65.13 727.466 64.35C728.407 63.57 728.861 62.347 728.657 61.141L724.09 34.271C723.992 33.6775 723.739 33.1207 723.355 32.6576C722.971 32.1946 722.471 31.842 721.906 31.636C721.522 31.492 721.115 31.418 720.704 31.418Z" fill="#E6E6E6"/>
<path d="M679.753 128.885C684.849 128.885 688.98 124.754 688.98 119.658C688.98 114.562 684.849 110.431 679.753 110.431C674.657 110.431 670.526 114.562 670.526 119.658C670.526 124.754 674.657 128.885 679.753 128.885Z" fill="#E6E6E6"/>
<path d="M679.753 117.351C683.15 117.351 685.904 116.318 685.904 115.044C685.904 113.77 683.15 112.737 679.753 112.737C676.356 112.737 673.602 113.77 673.602 115.044C673.602 116.318 676.356 117.351 679.753 117.351Z" fill="#3F3D56"/>
<path d="M675.14 125.04H683.598V135.42C683.598 136.542 683.152 137.617 682.359 138.41C681.566 139.203 680.491 139.649 679.369 139.649C678.247 139.649 677.172 139.203 676.379 138.41C675.586 137.617 675.14 136.542 675.14 135.42V125.04Z" fill="#FF6584"/>
<path d="M680.267 20.38L678.988 23.178C674.216 34.3072 672.607 46.5371 674.337 58.522L677.038 54.634C675.056 43.1318 676.17 31.3092 680.267 20.38ZM687.187 28.838L685.908 31.636C681.136 42.7652 679.527 54.9951 681.257 66.98L683.958 63.092C681.976 51.5897 683.091 39.7673 687.187 28.838Z" fill="#3F3D56"/>
<path d="M708.523 194.889L707.548 182.491L706.573 170.093C706.466 168.731 705.64 167.529 704.407 166.94C703.174 166.351 701.72 166.466 700.593 167.24L690.343 174.283L682.858 179.426C681.89 178.293 680.474 177.64 678.983 177.64C677.492 177.64 676.077 178.293 675.108 179.426L667.623 174.283L657.373 167.24C656.247 166.466 654.793 166.352 653.559 166.94C652.325 167.528 651.5 168.73 651.393 170.093L650.418 182.491L649.443 194.889C649.336 196.251 649.964 197.568 651.09 198.342C652.216 199.116 653.67 199.23 654.904 198.642L666.128 193.287L675.351 188.887C675.825 189.368 676.391 189.75 677.014 190.011C677.637 190.271 678.306 190.406 678.982 190.406C679.658 190.406 680.327 190.271 680.95 190.011C681.573 189.75 682.139 189.368 682.613 188.887L691.836 193.287L703.06 198.642C704.293 199.23 705.747 199.116 706.874 198.342C708.001 197.568 708.628 196.252 708.521 194.889H708.523Z" fill="#6C63FF"/>
<path d="M667.451 111.969C668.725 111.969 669.758 110.936 669.758 109.662C669.758 108.388 668.725 107.355 667.451 107.355C666.177 107.355 665.144 108.388 665.144 109.662C665.144 110.936 666.177 111.969 667.451 111.969Z" fill="#E6E6E6"/>
<path d="M692.056 111.969C693.33 111.969 694.363 110.936 694.363 109.662C694.363 108.388 693.33 107.355 692.056 107.355C690.782 107.355 689.749 108.388 689.749 109.662C689.749 110.936 690.782 111.969 692.056 111.969Z" fill="#E6E6E6"/>
<path d="M233.425 243.052L235.117 243.067L236.809 243.052C266.566 242.375 288.135 223.783 282.645 204.275L269.258 156.686L265.875 144.645L205.899 145.668L202.254 157.448L187.906 203.814C181.832 223.429 203.399 242.376 233.425 243.052Z" fill="#3F3D56"/>
<path opacity="0.2" d="M202.253 157.447C223.076 169.35 248.71 169.059 269.257 156.686L265.874 144.645L205.898 145.668L202.253 157.447Z" fill="black"/>
<path d="M197.5 200.214C191.027 192.595 177.37 183.649 148.6 178.688C98.423 170.032 111.479 139.549 112.058 138.256C113.273 135.545 112.044 133.729 109.287 134.215C107.735 134.603 106.284 135.318 105.031 136.313C103.778 137.307 102.752 138.558 102.021 139.981C101.28 141.566 84.529 178.891 141.148 188.654C192.105 197.444 192.287 218.844 192.273 219.057C192.137 221.419 194.491 222.144 197.536 220.677C200.581 219.21 203.161 216.108 203.301 213.746C203.329 213.247 203.528 207.305 197.5 200.214ZM262.798 249.987C264.633 249.987 266.393 249.258 267.691 247.96C268.989 246.662 269.718 244.902 269.718 243.067V213.079C269.729 212.163 269.558 211.254 269.215 210.405C268.872 209.556 268.364 208.783 267.721 208.131C267.077 207.48 266.31 206.963 265.465 206.61C264.62 206.257 263.713 206.075 262.798 206.075C261.882 206.075 260.975 206.257 260.13 206.61C259.285 206.963 258.518 207.48 257.874 208.131C257.231 208.783 256.723 209.556 256.38 210.405C256.037 211.254 255.866 212.163 255.877 213.079V243.067C255.877 244.902 256.606 246.662 257.904 247.96C259.202 249.258 260.962 249.987 262.797 249.987H262.798ZM256.731 178.794C257.111 179.62 257.65 180.362 258.316 180.98C258.983 181.597 259.765 182.077 260.618 182.392C261.47 182.707 262.376 182.851 263.284 182.816C264.192 182.781 265.084 182.568 265.91 182.188L293.153 169.654C293.979 169.274 294.721 168.735 295.339 168.069C295.956 167.402 296.436 166.62 296.751 165.767C297.067 164.915 297.211 164.009 297.176 163.101C297.141 162.192 296.927 161.3 296.548 160.475C296.168 159.649 295.629 158.906 294.962 158.289C294.295 157.671 293.513 157.191 292.661 156.876C291.808 156.561 290.902 156.417 289.994 156.452C289.086 156.487 288.194 156.7 287.368 157.08L260.125 169.614C259.299 169.994 258.557 170.533 257.939 171.199C257.322 171.866 256.842 172.648 256.527 173.501C256.212 174.353 256.068 175.259 256.103 176.167C256.138 177.075 256.351 177.967 256.731 178.793V178.794ZM213.503 178.794C213.123 179.62 212.584 180.362 211.918 180.98C211.251 181.597 210.469 182.077 209.616 182.392C208.764 182.707 207.858 182.851 206.95 182.816C206.042 182.781 205.15 182.568 204.324 182.188L177.081 169.654C176.255 169.274 175.513 168.735 174.895 168.069C174.278 167.402 173.798 166.62 173.483 165.767C173.167 164.915 173.023 164.009 173.058 163.101C173.093 162.192 173.307 161.3 173.687 160.475C174.066 159.649 174.605 158.906 175.272 158.289C175.939 157.671 176.721 157.191 177.573 156.876C178.426 156.561 179.332 156.417 180.24 156.452C181.148 156.487 182.04 156.7 182.866 157.08L210.109 169.614C210.935 169.994 211.677 170.533 212.295 171.199C212.912 171.866 213.392 172.648 213.707 173.501C214.022 174.353 214.166 175.259 214.131 176.167C214.096 177.075 213.883 177.967 213.503 178.793V178.794Z" fill="#3F3D56"/>
<path d="M207.436 249.987C205.601 249.987 203.841 249.258 202.543 247.96C201.245 246.662 200.516 244.902 200.516 243.067V213.079C200.505 212.163 200.676 211.254 201.019 210.405C201.362 209.556 201.87 208.783 202.513 208.131C203.157 207.48 203.924 206.963 204.769 206.61C205.614 206.257 206.521 206.075 207.437 206.075C208.352 206.075 209.259 206.257 210.104 206.61C210.949 206.963 211.716 207.48 212.36 208.131C213.003 208.783 213.511 209.556 213.854 210.405C214.197 211.254 214.368 212.163 214.357 213.079V243.067C214.357 244.902 213.628 246.662 212.33 247.96C211.032 249.258 209.271 249.987 207.436 249.987ZM290.484 53.91C290.883 52.7976 290.987 51.6005 290.785 50.436L287.019 28.279L283.253 6.12201C282.839 3.68701 281.158 1.65801 278.842 0.799006C276.526 -0.0599943 273.928 0.382006 272.027 1.95701L254.722 16.297L244.679 24.619C237.692 23.593 230.585 23.7 223.632 24.936L213.206 16.296L195.9 1.95801C193.998 0.382006 191.4 -0.0589942 189.085 0.799006C186.77 1.65701 185.088 3.68701 184.674 6.12201L180.908 28.279L177.142 50.436C176.976 51.3833 177.013 52.355 177.249 53.2871C177.486 54.2192 177.917 55.0906 178.515 55.844C161.581 83.845 167.67 120.019 192.837 140.934C218.004 161.849 254.682 161.215 279.111 139.443C303.54 117.671 308.376 81.308 290.485 53.909L290.484 53.91Z" fill="#3F3D56"/>
<path d="M271.589 11.83L250.604 29.22C250.141 29.6029 249.787 30.1011 249.577 30.6645C249.368 31.2279 249.31 31.8365 249.411 32.4291C249.512 33.0216 249.767 33.5771 250.151 34.0397C250.534 34.5023 251.033 34.8556 251.597 35.064L277.15 44.543C278.296 44.968 279.583 44.75 280.524 43.97C281.465 43.19 281.919 41.967 281.715 40.761L277.148 13.891C277.05 13.2975 276.797 12.7407 276.413 12.2777C276.029 11.8146 275.529 11.462 274.964 11.256C274.58 11.112 274.173 11.038 273.762 11.038C272.968 11.0393 272.199 11.3196 271.59 11.83H271.589ZM192.964 11.256C192.399 11.462 191.899 11.8146 191.515 12.2777C191.131 12.7407 190.878 13.2975 190.78 13.891L186.213 40.761C186.112 41.3535 186.168 41.9622 186.377 42.5259C186.586 43.0896 186.939 43.5883 187.402 43.9718C187.865 44.3553 188.421 44.61 189.013 44.7103C189.606 44.8106 190.215 44.7529 190.778 44.543L216.331 35.064C216.895 34.8556 217.394 34.5023 217.777 34.0397C218.161 33.5771 218.416 33.0216 218.517 32.4291C218.618 31.8365 218.56 31.2279 218.351 30.6645C218.141 30.1011 217.787 29.6029 217.324 29.22L196.338 11.83C195.729 11.3196 194.96 11.0393 194.166 11.038C193.756 11.039 193.349 11.112 192.964 11.256Z" fill="#E6E6E6"/>
<path d="M235.117 108.505C240.213 108.505 244.344 104.374 244.344 99.278C244.344 94.1821 240.213 90.051 235.117 90.051C230.021 90.051 225.89 94.1821 225.89 99.278C225.89 104.374 230.021 108.505 235.117 108.505Z" fill="#E6E6E6"/>
<path d="M235.117 96.972C238.514 96.972 241.268 95.9391 241.268 94.665C241.268 93.3909 238.514 92.358 235.117 92.358C231.72 92.358 228.966 93.3909 228.966 94.665C228.966 95.9391 231.72 96.972 235.117 96.972Z" fill="#3F3D56"/>
<path d="M235.501 119.27C234.379 119.27 233.304 118.824 232.511 118.031C231.718 117.238 231.272 116.163 231.272 115.041V104.661H239.73V115.041C239.73 116.163 239.284 117.238 238.491 118.031C237.698 118.824 236.623 119.27 235.501 119.27Z" fill="#FF6584"/>
<path d="M234.604 0L235.883 2.798C240.655 13.9272 242.264 26.1571 240.534 38.142L237.833 34.254C239.815 22.7518 238.701 10.9292 234.604 0ZM227.683 8.458L228.962 11.256C233.734 22.3852 235.343 34.6151 233.613 46.6L230.912 42.712C232.894 31.2098 231.78 19.3872 227.683 8.458Z" fill="#3F3D56"/>
<path d="M206.347 39.947L207.322 27.549L208.297 15.151C208.404 13.789 209.23 12.587 210.463 11.998C211.696 11.409 213.15 11.524 214.277 12.298L224.527 19.341L232.012 24.484C232.98 23.351 234.396 22.698 235.887 22.698C237.378 22.698 238.793 23.351 239.762 24.484L247.247 19.341L257.497 12.298C258.623 11.524 260.077 11.41 261.311 11.998C262.545 12.586 263.37 13.788 263.477 15.151L264.452 27.549L265.427 39.947C265.534 41.309 264.906 42.626 263.78 43.4C262.654 44.174 261.2 44.288 259.966 43.7L248.741 38.345L239.518 33.945C239.044 34.426 238.478 34.808 237.855 35.0687C237.232 35.3294 236.563 35.4637 235.887 35.4637C235.211 35.4637 234.542 35.3294 233.919 35.0687C233.296 34.808 232.73 34.426 232.256 33.945L223.033 38.345L211.809 43.7C210.576 44.288 209.122 44.174 207.995 43.4C206.868 42.626 206.241 41.31 206.348 39.947H206.347Z" fill="#6C63FF"/>
<path d="M245.113 89.282C245.113 90.556 246.146 89.282 247.42 89.282C248.694 89.282 249.727 90.556 249.727 89.282C249.727 88.008 248.692 86.98 247.42 86.98C246.809 86.9808 246.224 87.2234 245.791 87.6548C245.359 88.0862 245.115 88.6713 245.113 89.282ZM225.121 89.282C225.121 90.556 224.088 89.282 222.814 89.282C221.54 89.282 220.507 90.556 220.507 89.282C220.507 88.008 221.542 86.98 222.814 86.98C223.425 86.9808 224.01 87.2234 224.443 87.6548C224.875 88.0862 225.119 88.6713 225.121 89.282Z" fill="#E6E6E6"/>
<path d="M481.05 263.451V248.788H407.736V249.705V263.451V381.67V396.333H422.399H481.05V381.67H422.399V263.451H481.05Z" fill="#3F3D56"/>
<path d="M516.791 248.788V396.332H590.105V248.788H516.791ZM575.442 381.67H531.454V263.451H575.442V381.67ZM313.344 381.67V249.705H298.681V381.67V396.333H313.344H371.995V381.67H313.344Z" fill="#6C63FF"/>
<path d="M265.69 263.451V248.788H192.376V249.705V263.451V314.771V329.434V381.67V396.333H207.039H265.69V381.67H207.039V329.434H265.69V314.771H207.039V263.451H265.69Z" fill="#3F3D56"/>
<path d="M839.372 263.451V248.788H766.058V249.705V263.451V314.771V329.434V381.67V396.333H780.721H839.372V381.67H780.721V329.434H839.372V314.771H780.721V263.451H839.372Z" fill="#6C63FF"/>
<path d="M142.889 249.705V370.89L104.228 332.23L104.14 332.319L104.058 332.237L64.535 371.76V249.247H49.872V395.875H64.535V392.496L104.147 352.884L142.889 391.627V396.333H157.552V249.705H142.889ZM717.488 249.705V253.083L677.876 292.695L639.133 253.953V249.247H624.47V395.875H639.133V274.689L677.794 313.35L677.883 313.261L677.964 313.342L717.488 273.819V396.333H732.15V249.705H717.488Z" fill="#3F3D56"/>
<path d="M335.076 159.38C340.047 159.38 344.076 155.351 344.076 150.38C344.076 145.409 340.047 141.38 335.076 141.38C330.105 141.38 326.076 145.409 326.076 150.38C326.076 155.351 330.105 159.38 335.076 159.38Z" fill="#6C63FF"/>
<path d="M113.076 259.38C118.047 259.38 122.076 255.351 122.076 250.38C122.076 245.409 118.047 241.38 113.076 241.38C108.105 241.38 104.076 245.409 104.076 250.38C104.076 255.351 108.105 259.38 113.076 259.38Z" fill="#6C63FF"/>
<path d="M291.076 459.38C296.047 459.38 300.076 455.351 300.076 450.38C300.076 445.409 296.047 441.38 291.076 441.38C286.105 441.38 282.076 445.409 282.076 450.38C282.076 455.351 286.105 459.38 291.076 459.38Z" fill="#6C63FF"/>
<path d="M517.076 186.38C522.047 186.38 526.076 182.351 526.076 177.38C526.076 172.409 522.047 168.38 517.076 168.38C512.105 168.38 508.076 172.409 508.076 177.38C508.076 182.351 512.105 186.38 517.076 186.38Z" fill="#6C63FF"/>
<path d="M782.076 451.38C787.047 451.38 791.076 447.351 791.076 442.38C791.076 437.409 787.047 433.38 782.076 433.38C777.105 433.38 773.076 437.409 773.076 442.38C773.076 447.351 777.105 451.38 782.076 451.38Z" fill="#6C63FF"/>
<path d="M791.076 215.38C796.047 215.38 800.076 211.351 800.076 206.38C800.076 201.409 796.047 197.38 791.076 197.38C786.105 197.38 782.076 201.409 782.076 206.38C782.076 211.351 786.105 215.38 791.076 215.38Z" fill="#6C63FF"/>
<path d="M677.076 377.38C682.047 377.38 686.076 373.351 686.076 368.38C686.076 363.409 682.047 359.38 677.076 359.38C672.105 359.38 668.076 363.409 668.076 368.38C668.076 373.351 672.105 377.38 677.076 377.38Z" fill="#6C63FF"/>
</g>
<defs>
<clipPath id="clip0_1_3">
<rect width="889.076" height="459.38" fill="white"/>
</clipPath>
</defs>
</svg>
